/* XPM */
static char *magick[] = {
/* columns rows colors chars-per-pixel */
"32 32 30 1",
"  c gray0",
". c #00001d",
"X c #151515",
"o c #191919",
"O c #000024",
"+ c #00002c",
"@ c #000034",
"# c #00003c",
"$ c gray22",
"% c #000044",
"& c #00004c",
"* c #000053",
"= c #01005b",
"- c #010063",
"; c #01006b",
": c #010073",
"> c #484848",
", c #4b4b60",
"< c #5555a1",
"1 c #888888",
"2 c #909090",
"3 c #a9a9a9",
"4 c #aaaad1",
"5 c #c0c0c0",
"6 c #cdcdcd",
"7 c #d8d8d8",
"8 c gray90",
"9 c #efefef",
"0 c gray95",
"q c white",
/* pixels */
"77777777777777777777777777777777",
"77777777777777777777777777777777",
"77777787777  7777777777777777777",
"777777477777 7777777777777777777",
"77777q:q7777 7777777777777777777",
"7777q;;:877 77777777777777777777",
"7777=-;;477  7777777777777777777",
"777q==-;;q7777777777777777777777",
"7777q==-777777777777777777777777",
"7777q*==777777777777777777777777",
"7777q&*=777777777777777777777777",
"7777q&&*7777777     777777777777",
"7777q%&&7777777     777777777777",
"7777q#%&777777777  7777777777777",
"7777q##%777777777  7777777777777",
"7777q@##777777777  7777777777777",
"7777q+@#777777777  7777777777777",
"7777q++@777777777  7777777777777",
"7777qOO+777777777  7777777777777",
"7777q.O+777777777  77777777 73>7",
"7777q.,q77777777777777777777  77",
"7777qX   1077777777777777777 277",
"777q  qqq  8777777777777077o5 77",
"777X qqqqq q777777777777qq7 77 7",
"778 qq  $qq qqqqqqqqqqqqq;<07777",
"77q qq   qq O++@##%&&*==-;;:q777",
"777 qq$ 6qq .O++@##%&&*==-;;:q77",
"7771 qqqqq q..O++@##%&&*==-;q777",
"7779  qqq  7777777777777q=q77777",
"77778q   q77777777777777qq777777",
"77777777777777777777777777777777",
"77777777777777777777777777777777"
};
