/* XPM */
static char *magick[] = {
/* columns rows colors chars-per-pixel */
"32 32 29 1",
"  c gray0",
". c #00001c",
"X c #151515",
"o c #000024",
"O c #00002c",
"+ c #000033",
"@ c #00003c",
"# c #181833",
"$ c gray19",
"% c gray22",
"& c #000043",
"* c #00004b",
"= c #000053",
"- c #01005a",
"; c #010063",
": c #01006b",
"> c #010072",
", c #484848",
"< c #888888",
"1 c #909090",
"2 c #a9a9a9",
"3 c #aaaac9",
"4 c #aaaad2",
"5 c #c0c0c0",
"6 c #cdcdcd",
"7 c #d8d8d8",
"8 c #e6e6e6",
"9 c #efefef",
"0 c white",
/* pixels */
"77777777777777777777777777777777",
"77777777777777777777777777777777",
"777777777777777777527 7777877777",
"7777777777777777777 7 7777477777",
"77777777777777777777 77770>07777",
"77777777777777777777 7770>:;8777",
"77777777777777777777 777>::;3777",
"777777777777777777777770::;--077",
"7777777777777777777777770;--7777",
"7777777777777777777777770--=7777",
"7777777777777777777777770-=*7777",
"777777777777    577777770=**7777",
"777777777777 $$  77777770**&7777",
"777777777777 177 77777770*&@7777",
"777777777777     77777770&@@7777",
"777777777777     77777770@@+7777",
"777777777777 177  7777770@+O7777",
"777777777777 177  7777770++o7777",
"777777777777 $,  $7777770Ooo7777",
"777 7 777777     77777770ooo7777",
"777  777777777777777777700#.7777",
"7775 777777777777777770X   <9777",
"777 7 7777777777777770  000  877",
"777777707777777777777X 00000 077",
"777770>:0000000000000 00  %00 77",
"77770>::;--=**&@@+Oo0 00   00 77",
"7784>::;--=**&@@+Ooo# 00% 600 77",
"77770:;--=**&@@++oo..< 00000 077",
"7777783-77777777777779  000  777",
"777777707777777777777780   07777",
"77777777777777777777777777777777",
"77777777777777777777777777777777"
};
