/* XPM */
static char *magick[] = {
/* columns rows colors chars-per-pixel */
"32 32 28 1",
"  c gray0",
". c #00001a",
"X c #151515",
"o c #000023",
"O c #00002d",
"+ c #000035",
"@ c #00003d",
"# c gray19",
"$ c #000044",
"% c #00004d",
"& c #010054",
"* c #01005c",
"= c #010064",
"- c #01006c",
"; c #010074",
": c #484848",
"> c gray38",
", c gray47",
"< c #555594",
"1 c #888888",
"2 c #909090",
"3 c #a9a9a9",
"4 c #c0c0c0",
"5 c #d8d8d8",
"6 c #e4e4e4",
"7 c #efefef",
"8 c #f4f4f4",
"9 c white",
/* pixels */
"55555555555555555555555555555555",
"55555555555555555555555555555555",
"55555569555555555555555585555555",
"55559X   17555555555555599555555",
"5559  999  99999999999999*<85555",
"555X  999  9.ooOO+@@$%%&&*=-9555",
"556 99 8 99 .oOO+@@$%%&**=--;955",
"559 996 999 oOO+@@$%%&&*=--;9555",
"555 99 8 99 5555555555559-955555",
"5551  999  955555555555599,#55 5",
"5558  999  5555555555555555 5 55",
"555599   955555    :55555555 555",
"55559.oo5555555     55555554# 55",
"55559.oO5555555  55 2555555 5 55",
"55559oOO5555555  5  555555555555",
"55559OO+5555555     555555555555",
"55559O+@5555555  55  55555555555",
"55559+@@5555555  55  55555555555",
"55559@@$5555555  5,  55555555555",
"55559@$%5555555     555555555555",
"55559$%%555555555555555555555555",
"55559%%&555555555555555555555555",
"55559%&*555555555555555555555555",
"55559&**555555555555555555555555",
"55899**=992  5555555555555555555",
"5559&*=--955 5555555555555555555",
"5555<=--955 55555555555555555555",
"55558--;553>55555555555555555555",
"555559;9555555555555555555555555",
"55555595555555555555555555555555",
"55555555555555555555555555555555",
"55555555555555555555555555555555"
};
