/* XPM */
static char *magick[] = {
/* columns rows colors chars-per-pixel */
"32 32 23 1",
"  c #258add",
". c #820e2b",
"X c #991334",
"o c #9e5164",
"O c #d60c3e",
"+ c #da053b",
"@ c #d9093c",
"# c #c61e49",
"$ c #ce1543",
"% c #ca1a46",
"& c #d30f40",
"* c #d11141",
"= c #c3234b",
"- c #ffddb5",
"; c #ffe0b7",
": c #ffe4b9",
"> c #ffeabe",
", c #d8d8d8",
"< c #ffeec0",
"1 c #fff4c4",
"2 c #fff8c7",
"3 c #fffac8",
"4 c None",
/* pixels */
",,,,,,,,,,,,,,,,,,,,,,,,,,,,,,,,",
",,,,,,,,,,,,,,,,,,,,,,,,,,,,,,,,",
",,,,,,,,,,,,,,,,,,,,,,,,,,,,,,,,",
",,,,,,,,,,,,,,,,,,,,,,,,,,,,,,,,",
",,,,,,,,,,,,,,,,,,,,,,,,,,,,,,,,",
",,,,,,,,,,,,,,,,,,,,,,,,,,,,,,,,",
",,,,,,,,....,,,,,,.,,,,,,,,,,,,,",
",,,,,,,,....,,,,o...,,,,,,,,,,,,",
",,,,,,,,....,,,..==..,,,,,,,,,,,",
",,,,,,,,....,,.X###=..,,,,,,,,,,",
",,,,,,,,......$%%%###..,,,,,,,,,",
",,,,,,,,.....*$$$$$$$%..,,,,,,,,",
",,,,,,,,...OOOOO$O$$$$$..,,,,,,,",
",,,,,,,,..++++@@OOOOO&&&..,,,,,,",
",,,,,,,..+++++++++++@@OOO..,,,,,",
",,,,,.......................,,,,",
",,,,.........................,,,",
",,,,,.;;:::>>><<1111333333.,,,,,",
",,,,,.--      >1111123   3.,,,,,",
",,,,,.--      ><>11122   3.,,,,,",
",,,,,.--      >>....12   3.,,,,,",
",,,,,.--      >>....11   3.,,,,,",
",,,,,.----;::::>....111233.,,,,,",
",,,,,.-----;:::>....111233.,,,,,",
",,,,,.------;:::....<11123.,,,,,",
",,,,,.------;;::....><1112.,,,,,",
",,,,,.-------;::....<<1112.,,,,,",
",,,,,.--------;:....><1111.,,,,,",
",,,,,......................,,,,,",
",,,,,,,,,,,,,,,,,,,,,,,,,,,,,,,,",
",,,,,,,,,,,,,,,,,,,,,,,,,,,,,,,,",
",,,,,,,,,,,,,,,,,,,,,,,,,,,,,,,,"
};
