/* XPM */
static char *magick[] = {
/* columns rows colors chars-per-pixel */
"32 32 29 1",
"  c gray0",
". c #00001d",
"X c #151515",
"o c #191919",
"O c #000024",
"+ c #00002c",
"@ c #000034",
"# c #00003c",
"$ c #000044",
"% c #00004c",
"& c #000053",
"* c #01005b",
"= c #010063",
"- c #01006b",
"; c #010073",
": c #484848",
"> c #4b4b60",
", c gray43",
"< c gray47",
"1 c #5555a1",
"2 c #888888",
"3 c #909090",
"4 c #aaaad1",
"5 c #c0c0c0",
"6 c #d8d8d8",
"7 c #e4e4e4",
"8 c #efefef",
"9 c gray95",
"0 c white",
/* pixels */
"66666666666666666666666666666666",
"66666666666666666666666666666666",
"66666676666 66 66666666666666666",
"66666646666o5 666666666666666666",
"666660;06666 <666666666666666666",
"66660--;7666  666666666666666666",
"6666*=--466 63:66666666666666666",
"6660**=--06666666666666666666666",
"66660**=666666666666666666666666",
"66660&**666666666666666666666666",
"66660%&*666666666666666666666666",
"66660%%&6666666     666666666666",
"66660$%%6666666     666666666666",
"66660#$%6666666  666666666666666",
"66660##$6666666  666666666666666",
"66660@##6666666     666666666666",
"66660+@#6666666     666666666666",
"66660++@6666666  666666666666666",
"66660OO+6666666  666666666666666",
"66660.O+6666666  6666666666 6 66",
"66660.>0666666666666666666636 66",
"66660X   2966666666666666666 666",
"6660  000  76666666666669666 666",
"666X  000  06666666666660066 666",
"667 00 , 00 0000000000000-196666",
"660 007 700 O+@@##$%%&**=--;0666",
"666 00 0 00 .O++@##$%%&**=--;066",
"6662  000  0..OO+@##$%%&**=-0666",
"6668  000  66666666666660*066666",
"666670   06666666666666600666666",
"66666666666666666666666666666666",
"66666666666666666666666666666666"
};
