/* XPM */
static char *magick[] = {
/* columns rows colors chars-per-pixel */
"32 32 27 1",
"  c gray0",
". c #00001c",
"X c #151515",
"o c #000024",
"O c #00002c",
"+ c #000033",
"@ c #00003c",
"# c #181833",
"$ c #000043",
"% c #00004b",
"& c #000053",
"* c #01005a",
"= c #010063",
"- c #01006b",
"; c #010072",
": c #484848",
"> c #585858",
", c #888888",
"< c #a9a9a9",
"1 c #aaaac9",
"2 c #aaaad2",
"3 c #c0c0c0",
"4 c #d8d8d8",
"5 c #e6e6e6",
"6 c #efefef",
"7 c gray95",
"8 c white",
/* pixels */
"44444444444444444444444444444444",
"44444444444444444444444444444444",
"4444444444444444443<4 4444544444",
"4444444444444444444 4 4444244444",
"44444444444444444444 44448;84444",
"44444444444444444444 4448;-=5444",
"44444444444444444444 444;--=1444",
"444444444444444444444448--=**844",
"4444444444444444444444448=**4444",
"4444444444444444444444448**&4444",
"4444444444444444444444448*&%4444",
"4444444444444  4444444448&%%4444",
"4444444444444  4444444448%%$4444",
"4444444444444  4444444448%$@4444",
"4444444444444  4444444448$@@4444",
"4444444444444  4444444448@@+4444",
"4444444444444  4444444448@+O4444",
"4444444444444  4444444448++o4444",
"4444444444444  :::4444448Ooo4444",
"4444  4444444     4444448ooo4444",
"44444 44444444444444444488#.4444",
"4444 444444444444444448X   ,6444",
"4444 44444444444444448  888  544",
"444444484444444444444X  887  844",
"444448;-8888888888888 88   88 44",
"44448;--=**&%%$@@+Oo8 88> 888 44",
"4452;--=**&%%$@@+Ooo# 87 8 88 44",
"44448-=**&%%$@@++oo..,  888  844",
"4444451*44444444444446  888  444",
"444444484444444444444458   84444",
"44444444444444444444444444444444",
"44444444444444444444444444444444"
};
