/* XPM */
static char *magick[] = {
/* columns rows colors chars-per-pixel */
"32 32 29 1",
"  c gray0",
". c #00001d",
"X c #151515",
"o c #000024",
"O c #00002c",
"+ c #000034",
"@ c #00003c",
"# c gray19",
"$ c gray22",
"% c #000044",
"& c #00004c",
"* c #000053",
"= c #01005b",
"- c #010063",
"; c #01006b",
": c #010073",
"> c #4b4b60",
", c gray38",
"< c #5555a1",
"1 c #888888",
"2 c #909090",
"3 c #aaaad1",
"4 c #c0c0c0",
"5 c #cdcdcd",
"6 c #d8d8d8",
"7 c gray90",
"8 c #efefef",
"9 c gray95",
"0 c white",
/* pixels */
"66666666666666666666666666666666",
"66666666666666666666666666666666",
"66666676666#62466666666666666666",
"66666636666 6 666666666666666666",
"666660:06666,6666666666666666666",
"66660;;:7666 6666666666666666666",
"6666=-;;3666 6666666666666666666",
"6660==-;;06666666666666666666666",
"66660==-666666666666666666666666",
"66660*==666666666666666666666666",
"66660&*=666666666666666666666666",
"66660&&*6666666     666666666666",
"66660%&&6666666      66666666666",
"66660@%&6666666  66  66666666666",
"66660@@%6666666  66  66666666666",
"66660+@@6666666      66666666666",
"66660O+@6666666     666666666666",
"66660OO+6666666    6666666666666",
"66660ooO6666666  6  666666666666",
"66660.oO6666666  66  666666  666",
"66660.>066666666666666666666 666",
"66660X   196666666666666666 6666",
"6660  000  7666666666666966 6666",
"666X 00000 0666666666666006   66",
"667 00  $00 0000000000000;<96666",
"660 00   00 oOO+@@%&&*==-;;:0666",
"666 00$ 500 .oOO+@@%&&*==-;;:066",
"6661 00000 0..oOO+@@%&&*==-;0666",
"6668  000  66666666666660=066666",
"666670   06666666666666600666666",
"66666666666666666666666666666666",
"66666666666666666666666666666666"
};
