/* XPM */
static char *magick[] = {
/* columns rows colors chars-per-pixel */
"32 32 37 1",
"  c #7e6d2a",
". c #45993b",
"X c #63a65b",
"o c #67a85f",
"O c #fe0705",
"+ c #fe0f0a",
"@ c #fe140d",
"# c #fd1e14",
"$ c #fd2015",
"% c #fd2619",
"& c #fd2b1c",
"* c #fd3221",
"= c #fc3b27",
"- c #fc3d28",
"; c #fc452d",
": c #fc4a30",
"> c #fc5337",
", c #fc5538",
"< c #fb5d3d",
"1 c #fb6341",
"2 c #fb704a",
"3 c #fa7b51",
"4 c #fa8055",
"5 c #fa895a",
"6 c #fa9260",
"7 c #f99864",
"8 c #f9a56d",
"9 c #f8b376",
"0 c #f8be7d",
"q c #8db888",
"w c #a7c3a4",
"e c #dfb0af",
"r c #f8cd88",
"t c #f7db90",
"y c #dbc8c7",
"u c #d7d8d7",
"i c #d8d8d8",
/* pixels */
"iiiiiiiiiiiiiiiiiiiiiiiiiiiiiiii",
"iiiiiiiiiiiiiiiiiiiiiiiiiiiiiiii",
"iiiiiiiiiiiiiiiiiiiiiiiiiiiiiiii",
"iiiiiiiiiiiiiiiiiiiiiiiiiiiiiiii",
"iiiiiiiiiiiiiiiiiiiiiiiiiiiiiiii",
"iiiiiiiiiiiiiiiiiiuuiiiiiiiiiiii",
"iiiiiiiiiiiiiiiiiiiuiuiiiiiiiiii",
"iiiiiiiiiiiiiiiqXXXXXXXoXXXXXXwi",
"iiiiiiiiiiiiiiu.iiiiiiiiiiiiii.i",
"iiiiiiiiiiiiii.iiiiiiiiiiiiii.ii",
"iiiiiiiiiiiiii.iiiiiiiiiiiiii.ii",
"iiiiiiiiiiiii.iiiiiiiiiiiiii.iii",
"iiiiiiiiiiiii.iiiiiiiiiiiiii.iii",
"iiiiiiiiiiii.iiiiiiiiiiiiii.iiii",
"iiiiiiiiiiii.iiiiiiiiiiiiii.iiii",
"iiiiiiiiiii.iiiiiiiiiiiiii.iiiii",
"iiiiiiiiiii.iiiiiiiiiiiiii.iiiii",
"iiiiiiiiii.iiiiiiiiiiiiii.iiiiii",
"iiiiiii@@@ iiiiiiiiiiiiii.iiiiii",
"iiiiii&;:;-#iiiiiiiiiiii.iiiiiii",
"iiiii%<2332:@iiiiiiiiiii.iiiiiii",
"iiiii=28996<%iiiiiiiiii.iiiiiiii",
"iiiiO-28tr71&XXXXoXoXXX.iiiiiiii",
"iiiie-28006<&iiiiiiiiiiiiiiiiiii",
"iiiii&<3553:@iiiiiiiiiiiiiiiiiii",
"iiiiiy*:,>;%iiiiiiiiiiiiiiiiiiii",
"iiiiiii###+iiiiiiiiiiiiiiiiiiiii",
"iiiiiiiiiiiiiiiiiiiiiiiiiiiiiiii",
"iiiiiiiiiiiiiiiiiiiiiiiiiiiiiiii",
"iiiiiiiiiiiiiiiiiiiiiiiiiiiiiiii",
"iiiiiiiiiiiiiiiiiiiiiiiiiiiiiiii",
"iiiiiiiiiiiiiiiiiiiiiiiiiiiiiiii"
};
