/* XPM */
static char *magick[] = {
/* columns rows colors chars-per-pixel */
"32 32 12 1",
"  c gray0",
". c #00009f",
"X c #0e0fa2",
"o c #1d1ea5",
"O c #2c2da8",
"+ c #3b3cab",
"@ c #4a4bae",
"# c #595ab1",
"$ c #6869b4",
"% c #7779b7",
"& c #d8d8d8",
"* c None",
/* pixels */
"&&&&&&&&&&&&&&&&&&&&&&&&&&&&&&&&",
"&&&&&&&&&&&&&&&&&&&&&&&&&&&&&&&&",
"&&&&&&&&&&%%%%%%%%%%%%%%%%%%%%&&",
"&&&&&&&&&%%%%%%%%%%%%%%%%%%%%%&&",
"&&&&&&&&#$%%&&&&&&&&&&&&&&#$%%&&",
"&&&&&&&+@#$%&&&&&&&&&&&&&+@#$%&&",
"&&&&&&oO+@%%&&&&&&&&&&&&oO+@%%&&",
"&&&&&.XoO&%%&&&&&&&&&&&.XoO&%%&&",
"&&&&                    .X&&%%&&",
"&&&&                    .&&&%%&&",
"&&&&  &&&&%%&&&&&&&&&&  &&&&%%&&",
"&&&&  &&&&%%&&&&&&&&&&  &&&&%%&&",
"&&&&  &&&&%%&&&&&&&&&&  &&&&%%&&",
"&&&&  &&&&%%&&&&&&&&&&  &&&&%%&&",
"&&&&  &&&&%%&&&&&&&&&&  &&&&%%&&",
"&&&&  &&&&%%&&&&&&&&&&  &&&&%%&&",
"&&&&  &&&&%%&&&&&&&&&&  &&&&%%&&",
"&&&&  &&&&%%&&&&&&&&&&  &&&&%%&&",
"&&&&  &&&&%%&&&&&&&&&&  &&&&%%&&",
"&&&&  &&&&%%&&&&&&&&&&  &&&&%%&&",
"&&&&  &&&&%%%%%%%%%%%%  %%%%%%&&",
"&&&&  &&&%%%%%%%%%%%%%  %%%%%%&&",
"&&&&  &&#$%%&&&&&&&&&&  &&#$%%&&",
"&&&&  &+@#$&&&&&&&&&&&  &+@#$&&&",
"&&&&  oO+@&&&&&&&&&&&&  oO+@&&&&",
"&&&&  XoO&&&&&&&&&&&&&  XoO&&&&&",
"&&&&                    .X&&&&&&",
"&&&&                    .&&&&&&&",
"&&&&&&&&&&&&&&&&&&&&&&&&&&&&&&&&",
"&&&&&&&&&&&&&&&&&&&&&&&&&&&&&&&&",
"&&&&&&&&&&&&&&&&&&&&&&&&&&&&&&&&",
"&&&&&&&&&&&&&&&&&&&&&&&&&&&&&&&&"
};
