/* XPM */
static char *magick[] = {
/* columns rows colors chars-per-pixel */
"32 32 21 1",
"  c black",
". c #040408",
"X c #0b0b13",
"o c #0e0e19",
"O c #19192d",
"+ c #1c1c32",
"@ c #282847",
"# c #292949",
"$ c #2e2e51",
"% c #313156",
"& c #3b3b67",
"* c #3b3b69",
"= c #4a4a82",
"- c #4e4e89",
"; c #5c5c8d",
": c #525291",
"> c #6767b7",
", c #6868b7",
"< c #b2b2b3",
"1 c #adadc1",
"2 c #d8d8d8",
/* pixels */
"22222222222222222222222222222222",
"22222222222222222222222222222222",
"22222222222222222222222222222222",
"2222                         222",
"2222                         222",
"2222                         222",
"2222  .XXX<222222222222XXXX  222",
"2222  .oOO+222222222222++OX  222",
"2222  .o+#$$2222222222%$$OX  222",
"2222  .o+#*==22222222--=$OX  222",
"2222  .22#*:,,,,,,,,,,,=$22  222",
"2222  .2222:,,,,,,,,,,,;222  222",
"2222  .22222,,2222222,,2222  222",
"2222  .22222,,2222222,,2222  222",
"2222  .22222,,2222222,,2222  222",
"2222  .22222,,2222222,,2222  222",
"2222  .22222,,2222222>>2222  222",
"2222  .22222,,2222222>>2222  222",
"2222  .22222,,2222222>>2222  222",
"2222  .22221,,,>,,,,>>>2222  222",
"2222  .222*:>>>>,,,,,>2=222  222",
"2222  .22#*::22222222::=$22  222",
"2222  .oO#&&&222222222**$O2  222",
"2222  .oO@@@2222222222@@@OX  222",
"2222  .oOOO222222222222OOOX  222",
"2222  .oooX222222222222ooXX  222",
"2222  .....................  222",
"2222                         222",
"2222                         222",
"22222222222222222222222222222222",
"22222222222222222222222222222222",
"22222222222222222222222222222222"
};
