/* XPM */
static char *magick[] = {
/* columns rows colors chars-per-pixel */
"32 32 42 1",
"  c #6b7e32",
". c #45993b",
"X c #6f8236",
"o c #6c8c3b",
"O c #6d9441",
"+ c #699a44",
"@ c #67a44a",
"# c #6ca049",
"$ c #63a65b",
"% c #67a85f",
"& c #fe0d09",
"* c #fd1b12",
"= c #fd2115",
"- c #fd2a1b",
"; c #f72c2a",
": c #fd3221",
"> c #fc3a26",
", c #fc3c28",
"< c #fc422c",
"1 c #fc4e33",
"2 c #fc5538",
"3 c #fb5c3d",
"4 c #f34442",
"5 c #ef605d",
"6 c #fb6342",
"7 c #fb6a46",
"8 c #fb6d48",
"9 c #fb704a",
"0 c #fa784f",
"q c #fa8457",
"w c #fa8b5c",
"e c #f99764",
"r c #f99a66",
"t c #f99e68",
"y c #f9a46c",
"u c #f8c07f",
"i c #8db888",
"p c #a7c3a4",
"a c #ddbbbb",
"s c #f8cc87",
"d c #d7d8d7",
"f c #d8d8d8",
/* pixels */
"ffffffffffffffffffffffffffffffff",
"ffffffffffffffffffffffffffffffff",
"ffffffffffffffffffffffffffffffff",
"ffffffffffffffffffffffffffffffff",
"ffffffffffffffffffdfffffffffffff",
"ffffffffffffffffffddffffffffffff",
"fffffffffffffffffffdffffffffffff",
"fffffffffffffffi$$$$$$$%$$$$$$pf",
"ffffffffffffffd.se6-ffffff=2wu.f",
"ffffffffffffff.yyw2=ffffff*1q.ff",
"ffffffffffffff.983,afffffff:3.ff",
"fffffffffffff.:>>-5fffffffff.fff",
"fffffffffffff.ffffffffffffff.fff",
"ffffffffffff.ffffffffffffff.ffff",
"ffffffffffff.ffffffffffffff.ffff",
"fffffffffff.ffffffffffffff.fffff",
"fffffffffff.ffffffffffffff.fffff",
"ffffffffff.ffffffffffffff.ffffff",
"ffffffffff.fffffffffff;4f.ffffff",
"fffffffff.*fffffffff*>,,.fffffff",
"fffffffff.2-fffffff*1699.fffffff",
"ffffffff.t0<&ffffff:6ey.ffffffff",
"ffffffff.+Oo $$$$%%Xo+@.ffffffff",
"fffffffffffdffffffffffffffffffff",
"ffffffffffffffffffffffffffffffff",
"ffffffffffffffffffffffffffffffff",
"ffffffffffffffffffffffffffffffff",
"ffffffffffffffffffffffffffffffff",
"ffffffffffffffffffffffffffffffff",
"ffffffffffffffffffffffffffffffff",
"ffffffffffffffffffffffffffffffff",
"ffffffffffffffffffffffffffffffff"
};
