/* XPM */
static char *magick[] = {
/* columns rows colors chars-per-pixel */
"32 32 61 1",
"  c gray0",
". c #713d3d",
"X c #7d4545",
"o c #646262",
"O c gray50",
"+ c #0060ff",
"@ c #0867ff",
"# c #0e6cff",
"$ c #1672ff",
"% c #1b76ff",
"& c #1e79ff",
"* c #354dc4",
"= c #247dff",
"- c #724a92",
"; c #2780ff",
": c #2c84ff",
"> c #368bff",
", c #3a8fff",
"< c #3c91ff",
"1 c #4396ff",
"2 c #4b9dff",
"3 c #54a4ff",
"4 c #58a7ff",
"5 c #59a8ff",
"6 c #61aeff",
"7 c #66b2ff",
"8 c #6db8ff",
"9 c #74bdff",
"0 c #7bc3ff",
"q c #983838",
"w c #bc3e3e",
"e c #a32f54",
"r c #aa3859",
"t c #856464",
"y c #9f6d6d",
"u c #bb4242",
"i c #c90a0a",
"p c #cf1717",
"a c #d60404",
"s c #d60b0b",
"d c #d61313",
"f c #d61b1b",
"g c #d62222",
"h c #d62c2c",
"j c #d63535",
"k c #d63b3b",
"l c #d64444",
"z c #d64a4a",
"x c #9b8686",
"c c #939393",
"v c #a19c9c",
"b c #b1b1b1",
"n c #83c9ff",
"m c #8acfff",
"M c #8dd1ff",
"N c #97d9ff",
"B c #9bddff",
"V c #c5c5c5",
"C c #d2d2d2",
"Z c #d8d8d8",
"A c None",
/* pixels */
"ZZZZZZZZZZZZZZZZZZZZZZZZZZZZZZZZ",
"ZZZZZZZZZZZZZZZZZZZZZZZZZZZZZZZZ",
"ZZZZZZZZZZZZZZZZZZZZZZZZZZZZZZZZ",
"ZZZZZZZZZZZZZZZZZZZZZZZZZZZZZZZZ",
"ZZZZZZZZZZZZZZZZZVhhhggfxZZZZZZZ",
"ZZZZZZZZZZZZZZZZjj542<:-fpZZZZZZ",
"ZZZZZZZZZZZZZZOk908741:%@d.ZZZZZ",
"ZZZZZZZZZZZZZol0MM0851>%@*dZZZZZ",
"ZZZZZZZZZZZZZl9mBNn841:$++dZZZZZ",
"ZZZZZZZZZZZZz60mNM073<=#++dvZZZZ",
"ZZZZZZZZZZZyz            +sbZZZZ",
"ZZZZZZZZZZZl1            +sZZZZZ",
"ZZZZZZZZZZZl>            +sZZZZZ",
"ZZZZZZZZZZZk;><<<>:&#++++saZZZZZ",
"ZZZZZZZZZZVj$==;=&$@+++++aZZZZZZ",
"ZZZZZZZZZZZj@@##@@++++++soZZZZZZ",
"ZZZZZZZZZZZhr++++++++++saZZZZZZZ",
"ZZZZZZZZZZZuh+++++++++saZZZZZZZZ",
"ZZZZZZZZZZZZgge+++++dsVZZZZZZZZZ",
"ZZZZZZZZZZZfffffdddswZZZZZZZZZZZ",
"ZZZZZZZZZZffdddZZZZZZZZZZZZZZZZZ",
"ZZZZZZZZZXddddZZZZZZZZZZZZZZZZZZ",
"ZZZZZZZZCssssZZZZZZZZZZZZZZZZZZZ",
"ZZZZZZZZasaaZZZZZZZZZZZZZZZZZZZZ",
"ZZZZZZZaaaaZZZZZZZZZZZZZZZZZZZZZ",
"ZZZZZZaaaaVZZZZZZZZZZZZZZZZZZZZZ",
"ZZZZZaaaatZZZZZZZZZZZZZZZZZZZZZZ",
"ZZZZqaaaiZZZZZZZZZZZZZZZZZZZZZZZ",
"ZZZCaaaaZZZZZZZZZZZZZZZZZZZZZZZZ",
"ZZZaaaaZZZZZZZZZZZZZZZZZZZZZZZZZ",
"ZZZZcaZZZZZZZZZZZZZZZZZZZZZZZZZZ",
"ZZZZZZZZZZZZZZZZZZZZZZZZZZZZZZZZ"
};
