/* XPM */
static char * show_xpm[] = {
"32 32 143 2",
"  	c None",
". 	c #8D8D8D",
"+ 	c #000000",
"@ 	c #0C0C0C",
"# 	c #4E4E4E",
"$ 	c #383838",
"% 	c #412A17",
"& 	c #795337",
"* 	c #8E5F42",
"= 	c #92654B",
"- 	c #96694D",
"; 	c #856043",
"> 	c #0B0806",
", 	c #747474",
"' 	c #303030",
") 	c #191919",
"! 	c #787878",
"~ 	c #C3C3C3",
"{ 	c #FBFBFB",
"] 	c #FFFFFF",
"^ 	c #444444",
"/ 	c #936447",
"( 	c #A36443",
"_ 	c #A45E39",
": 	c #A56444",
"< 	c #A96540",
"[ 	c #AA6C4B",
"} 	c #5B3F32",
"| 	c #707070",
"1 	c #F3F3F3",
"2 	c #484848",
"3 	c #404040",
"4 	c #B0B0B0",
"5 	c #28201B",
"6 	c #A46F54",
"7 	c #A25D38",
"8 	c #A25727",
"9 	c #A76030",
"0 	c #AD5E26",
"a 	c #AC5A1E",
"b 	c #A87155",
"c 	c #191817",
"d 	c #282828",
"e 	c #B6B6B6",
"f 	c #2B1E17",
"g 	c #AB785D",
"h 	c #A76847",
"i 	c #8A480D",
"j 	c #572F02",
"k 	c #4D2B02",
"l 	c #AA5D09",
"m 	c #AC5E2F",
"n 	c #433026",
"o 	c #B7B7B7",
"p 	c #DFDFDF",
"q 	c #101010",
"r 	c #050505",
"s 	c #767676",
"t 	c #FAFAFA",
"u 	c #EBEBEB",
"v 	c #2A1D17",
"w 	c #AD7253",
"x 	c #A65C32",
"y 	c #7C4204",
"z 	c #0C0600",
"A 	c #804806",
"B 	c #AE603A",
"C 	c #6C4E3D",
"D 	c #797979",
"E 	c #878787",
"F 	c #151515",
"G 	c #C2C2C2",
"H 	c #251A14",
"I 	c #AF7251",
"J 	c #A75828",
"K 	c #884B03",
"L 	c #180B00",
"M 	c #030100",
"N 	c #6E3C09",
"O 	c #AD5E3A",
"P 	c #815A44",
"Q 	c #585858",
"R 	c #343434",
"S 	c #E7E7E7",
"T 	c #2F2C2B",
"U 	c #A5623A",
"V 	c #A35716",
"W 	c #9A5603",
"X 	c #623600",
"Y 	c #4E2A01",
"Z 	c #9A540F",
"` 	c #AC6541",
" .	c #845842",
"..	c #7C7C7C",
"+.	c #2E2D2C",
"@.	c #3C3C3C",
"#.	c #616161",
"$.	c #835C48",
"%.	c #A96538",
"&.	c #A95A14",
"*.	c #AF6009",
"=.	c #B05D1A",
"-.	c #AB5921",
";.	c #AD6843",
">.	c #725140",
",.	c #5E5E5E",
"'.	c #0D0D0D",
").	c #D7D7D7",
"!.	c #C0C0C0",
"~.	c #412D22",
"{.	c #AC7A60",
"].	c #AA5C21",
"^.	c #AB580E",
"/.	c #AC571C",
"(.	c #AB5F30",
"_.	c #A96D4F",
":.	c #604332",
"<.	c #888888",
"[.	c #9F9F9F",
"}.	c #202020",
"|.	c #040404",
"1.	c #8C8C8C",
"2.	c #D6D6D6",
"3.	c #3F3E3D",
"4.	c #8C6345",
"5.	c #A96842",
"6.	c #AA622E",
"7.	c #AA683D",
"8.	c #A96A40",
"9.	c #9B6D49",
"0.	c #271B10",
"a.	c #4C4C4C",
"b.	c #4A4A4A",
"c.	c #737373",
"d.	c #A0A0A0",
"e.	c #CBCBCB",
"f.	c #E0E0E0",
"g.	c #1D130A",
"h.	c #6B482D",
"i.	c #563D27",
"j.	c #3E2D1E",
"k.	c #241910",
"l.	c #D8D8D8",
"l.l.l.l.l.l.l.l.l.l.l.l.l.l.l.l.l.l.l.l.l.l.l.. l.l.l.l.l.l.l.l.",
"l.l.l.l.l.l.l.l.l.l.l.l.l.l.l.l.l.l.l.+ + + + + + + + l.l.l.l.l.",
"l.l.l.l.l.l.l.l.l.l.l.l.l.l.l.l.+ + + + + + + + + + + + + + l.l.",
"l.l.l.l.l.l.l.l.l.l.l.l.l.l.+ + + + + + + l.l.l.+ + + + + + + l.",
"l.l.l.l.l.l.l.l.l.l.l.+ + + + + + l.l.l.l.l.l.l.l.l.+ + + + + l.",
"l.l.l.l.l.l.l.l.l.+ + + + + + l.l.l.l.l.l.l.l.l.l.l.l.l.l.l.l.l.",
"l.l.l.l.l.l.l.+ + + + + + l.l.l.l.l.l.l.l.l.l.l.l.l.l.l.l.l.l.l.",
"l.l.l.l.l.+ + + + + l.l.l.l.l.l.l.l.l.l.l.l.l.l.l.l.l.l.l.l.l.l.",
"l.l.l.+ + + + + l.l.l.l.l.l.l.l.l.l.l.l.l.l.l.l.l.l.l.l.l.l.l.l.",
"l.+ + + + + l.l.l.l.l.l.l.l.l.l.+ + + + + + + + + + + + + + l.l.",
"+ + + + + l.l.l.l.l.l.l.+ + + + l.l.l.l.l.l.l.l.l.l.l.l.l.l.l.l.",
"+ + l.l.l.l.l.l.l.l.+ + + l.l.l.l.l.+ + + + + + + + l.l.l.l.l.l.",
"l.l.l.l.l.l.l.l.l.+ + l.l.l.+ @ # $ % & * = - ; > , ' + l.l.l.l.",
"l.l.l.l.l.l.l.+ + l.l.+ ) ! ~ { ] ^ / ( _ : < [ } | 1 2 + l.l.l.",
"l.l.l.l.l.+ + l.l.+ 3 4 ] ] ] ] ] 5 6 7 8 9 0 a b c { 1 d + l.l.",
"l.l.l.l.+ l.l.+ d e ] ] ] ] ] ] { f g h i j k l m n o ] p q l.l.",
"l.l.+ + l.l.r s t ] ] ] ] ] ] ] u v w x y z + A B C D ] ] E + l.",
"l.+ l.l.l.F G ] ] ] ] ] ] ] ] ] ] H I J K L M N O P Q ] ] { R l.",
"l.l.l.+ R S ] ] ] ] ] ] ] ] ] ] ] T U V W X Y Z `  .3 ] ] ] ..+.",
"l.l.l.@.1 ] ] ] ] ] ] ] ] ] ] ] ] #.$.%.&.*.=.-.;.>.,.] ] { ' l.",
"l.l.'.).] ] ] ] ] ] ] ] ] ] ] ] ] !.~.{.].^./.(._.:.<.{ [.}.+ l.",
"l.l.l.|.3 1.2.] ] ] ] ] ] ] ] ] ] ] 3.4.5.6.7.8.9.0.a.}.+ l.l.l.",
"l.l.l.l.l.+ + q b.c.d.e e.f.f.f.f.f.4 g.h.i.j.k.+ + + l.l.l.l.l.",
"l.+ + + l.l.l.l.l.l.+ + + + + + + + + + + l.l.l.l.l.l.l.l.l.l.l.",
"l.l.l.+ + + + + + + l.l.l.l.l.l.l.l.l.l.l.l.l.l.l.l.l.l.l.l.l.l.",
"l.l.l.l.l.l.l.l.l.l.+ + + + l.l.l.l.l.l.l.l.l.l.l.l.l.l.l.l.l.l.",
"l.l.l.l.l.l.l.l.l.l.l.l.l.l.l.l.l.l.l.l.l.l.l.l.l.l.l.l.l.l.l.l.",
"l.l.l.l.l.l.l.l.l.l.l.l.l.l.l.l.l.l.l.l.l.l.l.l.l.l.l.l.l.l.l.l.",
"l.l.l.l.l.l.l.l.l.l.l.l.l.l.l.l.l.l.l.l.l.l.l.l.l.l.l.l.l.l.l.l.",
"l.l.l.l.l.l.l.l.l.l.l.l.l.l.l.l.l.l.l.l.l.l.l.l.l.l.l.l.l.l.l.l.",
"l.l.l.l.l.l.l.l.l.l.l.l.l.l.l.l.l.l.l.l.l.l.l.l.l.l.l.l.l.l.l.l.",
"l.l.l.l.l.l.l.l.l.l.l.l.l.l.l.l.l.l.l.l.l.l.l.l.l.l.l.l.l.l.l.l."};
