/* XPM */
static char *magick[] = {
/* columns rows colors chars-per-pixel */
"32 32 56 1",
"  c gray0",
". c #713d3d",
"X c #7d4545",
"o c #646262",
"O c gray50",
"+ c #0160ff",
"@ c #0e6cff",
"# c #1773ff",
"$ c #1b76ff",
"% c #1d79ff",
"& c #354dc4",
"* c #247dff",
"= c #724a92",
"- c #2780ff",
"; c #2c84ff",
": c #368bff",
"> c #3a8fff",
", c #3c91ff",
"< c #4396ff",
"1 c #4b9dff",
"2 c #54a4ff",
"3 c #59a8ff",
"4 c #62aeff",
"5 c #75beff",
"6 c #7ac3ff",
"7 c #983838",
"8 c #bc3e3e",
"9 c #a32f54",
"0 c #aa3859",
"q c #856464",
"w c #9f6d6d",
"e c #bb4242",
"r c #c90a0a",
"t c #cf1717",
"y c #d60404",
"u c #d60b0b",
"i c #d61313",
"p c #d61b1b",
"a c #d62222",
"s c #d62c2c",
"d c #d63535",
"f c #d63b3b",
"g c #d64444",
"h c #d64a4a",
"j c #9b8686",
"k c #939393",
"l c #a19c9c",
"z c #b1b1b1",
"x c #8acfff",
"c c #8dd1ff",
"v c #97d9ff",
"b c #9bddff",
"n c #c5c5c5",
"m c #d2d2d2",
"M c #d8d8d8",
"N c None",
/* pixels */
"MMMMMMMMMMMMMMMMMMMMMMMMMMMMMMMM",
"MMMMMMMMMMMMMMMMMMMMMMMMMMMMMMMM",
"MMMMMMMMMMMMMMMMMMMMMMMMMMMMMMMM",
"MMMMMMMMMMMMMMMMMMMMMMMMMMMMMMMM",
"MMMMMMMMMMMMMMMMMnsssaapjMMMMMMM",
"MMMMMMMMMMMMMMMMdd  1,-=ptMMMMMM",
"MMMMMMMMMMMMMMOf56  2<;$+i.MMMMM",
"MMMMMMMMMMMMMog6cc  3<:$@&iMMMMM",
"MMMMMMMMMMMMMg5xbv  2<;#++iMMMMM",
"MMMMMMMMMMMMh46xvc  2,*@++ilMMMM",
"MMMMMMMMMMMwh            +uzMMMM",
"MMMMMMMMMMMg<            +uMMMMM",
"MMMMMMMMMMMg:            +uMMMMM",
"MMMMMMMMMMMf-:,,,:  @++++uyMMMMM",
"MMMMMMMMMMnd#**-*%  +++++yMMMMMM",
"MMMMMMMMMMMd+@@@@@  ++++uoMMMMMM",
"MMMMMMMMMMMs0+++++  +++uyMMMMMMM",
"MMMMMMMMMMMes+++++  ++uyMMMMMMMM",
"MMMMMMMMMMMMaa9+++++uunMMMMMMMMM",
"MMMMMMMMMMMpppppiiiu8MMMMMMMMMMM",
"MMMMMMMMMMppiiiMMMMMMMMMMMMMMMMM",
"MMMMMMMMMXiiiiMMMMMMMMMMMMMMMMMM",
"MMMMMMMMmuuuuMMMMMMMMMMMMMMMMMMM",
"MMMMMMMMyuyyMMMMMMMMMMMMMMMMMMMM",
"MMMMMMMyyyyMMMMMMMMMMMMMMMMMMMMM",
"MMMMMMyyyynMMMMMMMMMMMMMMMMMMMMM",
"MMMMMyyyyqMMMMMMMMMMMMMMMMMMMMMM",
"MMMM7yyyrMMMMMMMMMMMMMMMMMMMMMMM",
"MMMmyyyyMMMMMMMMMMMMMMMMMMMMMMMM",
"MMMyyyyMMMMMMMMMMMMMMMMMMMMMMMMM",
"MMMMkyMMMMMMMMMMMMMMMMMMMMMMMMMM",
"MMMMMMMMMMMMMMMMMMMMMMMMMMMMMMMM"
};
