/* XPM */
static char *magick[] = {
/* columns rows colors chars-per-pixel */
"32 32 51 1",
"  c gray0",
". c #223755",
"X c #484848",
"o c gray47",
"O c #66a5ff",
"+ c #6caaff",
"@ c #70aeff",
"# c #75b2ff",
"$ c #7bb5ff",
"% c #7fb8ff",
"& c #ec6a6a",
"* c #e77575",
"= c #ec7373",
"- c #ec7b7b",
"; c gray60",
": c #a98787",
"> c #a9a9a9",
", c #baadad",
"< c gray70",
"1 c #bcb8b8",
"2 c #8999e2",
"3 c #83bcff",
"4 c #88bfff",
"5 c #b197c5",
"6 c #8cc2ff",
"7 c #92c7ff",
"8 c #94c9ff",
"9 c #9cceff",
"0 c #9fd1ff",
"q c #a3d3ff",
"w c #a8d6ff",
"e c #acdaff",
"r c #b2deff",
"t c #b6e1ff",
"y c #bbe4ff",
"u c #c28484",
"i c #cf859e",
"p c #d88a8a",
"a c #d38ba1",
"s c #c3a3a3",
"d c #ec8383",
"f c #ec8c8c",
"g c #ec9494",
"h c #c3c3c3",
"j c #cecece",
"k c gray83",
"l c #d8d8d8",
"z c #c1e9ff",
"x c #c8eeff",
"c c #ccf0ff",
"v c None",
/* pixels */
"llllllllllllllllllllllllllllllll",
"llllllllllllllllllllllllllllllll",
"llllllllllllllllllllllllllllllll",
"llllllllllllllllllllllllllllllll",
"llllllllllllllllljddd---,lllllll",
"llllllllllllllllffwq8635**llllll",
"llllllllllllll>frtrw083$+=:lllll",
"lllllllllllll;gyzzteq83#+2=lllll",
"lllllllllllllgryccye073#OO=lllll",
"llllllllllllgwtyxztw96%@OO=1llll",
"lllllllllllsgwrtyteq83#+OO=hllll",
"lllllllllllg79weww086$+OOO&lllll",
"lllllllllllg48900976%#OOOO&lllll",
"lllllX    lg3466663$+O     lllll",
"lllllX    jf@$%3%##+OO     lllll",
"llllloX   ld+++@+OOOOO..   lllll",
"lllllll   ldaOOOOOOOOOO=   lllll",
"lllllll   lpdOOOOOOOOO&&   lllll",
"lllllll   ll--i   OO&&jl   lllll",
"lllllll   l----   ==plll   lllll",
"lllllll   =-===lllllllll   lllll",
"lllllll   ====llllllllll   lllll",
"lllllll   &&&lllllllllll   lllll",
"lllllll   &&llllllllllll   lllll",
"lllllll   &lllllllllllll   lllll",
"llllll&   jllll   llllll   lllll",
"lllll&&   lllll   llllll   lllll",
"llllu&&   lllll   llllll   lllll",
"llkk&&&&llllllllllllllllllllllll",
"lll&&&&kllllllllllllllllllllllll",
"llll<&llllllllllllllllllllllllll",
"llllklllllllllllllllllllllllllll"
};
